
<svg xmlns="http://www.w3.org/2000/svg" width="630" height="500" viewBox="0 0 630 500">
  <defs>
    <style>
      .title { font-family: 'Bungee', 'Arial Black', sans-serif; font-weight: 900; }
    </style>
  </defs>

  <rect x="0" y="0" width="630" height="500" fill="#fbf3d5"/>
  <circle cx="14" cy="14" r="2" fill="#111111" opacity="0.06"/><circle cx="42" cy="14" r="2" fill="#111111" opacity="0.06"/><circle cx="70" cy="14" r="2" fill="#111111" opacity="0.06"/><circle cx="98" cy="14" r="2" fill="#111111" opacity="0.06"/><circle cx="126" cy="14" r="2" fill="#111111" opacity="0.06"/><circle cx="154" cy="14" r="2" fill="#111111" opacity="0.06"/><circle cx="182" cy="14" r="2" fill="#111111" opacity="0.06"/><circle cx="210" cy="14" r="2" fill="#111111" opacity="0.06"/><circle cx="238" cy="14" r="2" fill="#111111" opacity="0.06"/><circle cx="266" cy="14" r="2" fill="#111111" opacity="0.06"/><circle cx="294" cy="14" r="2" fill="#111111" opacity="0.06"/><circle cx="322" cy="14" r="2" fill="#111111" opacity="0.06"/><circle cx="350" cy="14" r="2" fill="#111111" opacity="0.06"/><circle cx="378" cy="14" r="2" fill="#111111" opacity="0.06"/><circle cx="406" cy="14" r="2" fill="#111111" opacity="0.06"/><circle cx="434" cy="14" r="2" fill="#111111" opacity="0.06"/><circle cx="462" cy="14" r="2" fill="#111111" opacity="0.06"/><circle cx="490" cy="14" r="2" fill="#111111" opacity="0.06"/><circle cx="518" cy="14" r="2" fill="#111111" opacity="0.06"/><circle cx="546" cy="14" r="2" fill="#111111" opacity="0.06"/><circle cx="574" cy="14" r="2" fill="#111111" opacity="0.06"/><circle cx="602" cy="14" r="2" fill="#111111" opacity="0.06"/><circle cx="14" cy="42" r="2" fill="#111111" opacity="0.06"/><circle cx="42" cy="42" r="2" fill="#111111" opacity="0.06"/><circle cx="70" cy="42" r="2" fill="#111111" opacity="0.06"/><circle cx="98" cy="42" r="2" fill="#111111" opacity="0.06"/><circle cx="126" cy="42" r="2" fill="#111111" opacity="0.06"/><circle cx="154" cy="42" r="2" fill="#111111" opacity="0.06"/><circle cx="182" cy="42" r="2" fill="#111111" opacity="0.06"/><circle cx="210" cy="42" r="2" fill="#111111" opacity="0.06"/><circle cx="238" cy="42" r="2" fill="#111111" opacity="0.06"/><circle cx="266" cy="42" r="2" fill="#111111" opacity="0.06"/><circle cx="294" cy="42" r="2" fill="#111111" opacity="0.06"/><circle cx="322" cy="42" r="2" fill="#111111" opacity="0.06"/><circle cx="350" cy="42" r="2" fill="#111111" opacity="0.06"/><circle cx="378" cy="42" r="2" fill="#111111" opacity="0.06"/><circle cx="406" cy="42" r="2" fill="#111111" opacity="0.06"/><circle cx="434" cy="42" r="2" fill="#111111" opacity="0.06"/><circle cx="462" cy="42" r="2" fill="#111111" opacity="0.06"/><circle cx="490" cy="42" r="2" fill="#111111" opacity="0.06"/><circle cx="518" cy="42" r="2" fill="#111111" opacity="0.06"/><circle cx="546" cy="42" r="2" fill="#111111" opacity="0.06"/><circle cx="574" cy="42" r="2" fill="#111111" opacity="0.06"/><circle cx="602" cy="42" r="2" fill="#111111" opacity="0.06"/><circle cx="14" cy="70" r="2" fill="#111111" opacity="0.06"/><circle cx="42" cy="70" r="2" fill="#111111" opacity="0.06"/><circle cx="70" cy="70" r="2" fill="#111111" opacity="0.06"/><circle cx="98" cy="70" r="2" fill="#111111" opacity="0.06"/><circle cx="126" cy="70" r="2" fill="#111111" opacity="0.06"/><circle cx="154" cy="70" r="2" fill="#111111" opacity="0.06"/><circle cx="182" cy="70" r="2" fill="#111111" opacity="0.06"/><circle cx="210" cy="70" r="2" fill="#111111" opacity="0.06"/><circle cx="238" cy="70" r="2" fill="#111111" opacity="0.06"/><circle cx="266" cy="70" r="2" fill="#111111" opacity="0.06"/><circle cx="294" cy="70" r="2" fill="#111111" opacity="0.06"/><circle cx="322" cy="70" r="2" fill="#111111" opacity="0.06"/><circle cx="350" cy="70" r="2" fill="#111111" opacity="0.06"/><circle cx="378" cy="70" r="2" fill="#111111" opacity="0.06"/><circle cx="406" cy="70" r="2" fill="#111111" opacity="0.06"/><circle cx="434" cy="70" r="2" fill="#111111" opacity="0.06"/><circle cx="462" cy="70" r="2" fill="#111111" opacity="0.06"/><circle cx="490" cy="70" r="2" fill="#111111" opacity="0.06"/><circle cx="518" cy="70" r="2" fill="#111111" opacity="0.06"/><circle cx="546" cy="70" r="2" fill="#111111" opacity="0.06"/><circle cx="574" cy="70" r="2" fill="#111111" opacity="0.06"/><circle cx="602" cy="70" r="2" fill="#111111" opacity="0.06"/><circle cx="14" cy="98" r="2" fill="#111111" opacity="0.06"/><circle cx="42" cy="98" r="2" fill="#111111" opacity="0.06"/><circle cx="70" cy="98" r="2" fill="#111111" opacity="0.06"/><circle cx="98" cy="98" r="2" fill="#111111" opacity="0.06"/><circle cx="126" cy="98" r="2" fill="#111111" opacity="0.06"/><circle cx="154" cy="98" r="2" fill="#111111" opacity="0.06"/><circle cx="182" cy="98" r="2" fill="#111111" opacity="0.06"/><circle cx="210" cy="98" r="2" fill="#111111" opacity="0.06"/><circle cx="238" cy="98" r="2" fill="#111111" opacity="0.06"/><circle cx="266" cy="98" r="2" fill="#111111" opacity="0.06"/><circle cx="294" cy="98" r="2" fill="#111111" opacity="0.06"/><circle cx="322" cy="98" r="2" fill="#111111" opacity="0.06"/><circle cx="350" cy="98" r="2" fill="#111111" opacity="0.06"/><circle cx="378" cy="98" r="2" fill="#111111" opacity="0.06"/><circle cx="406" cy="98" r="2" fill="#111111" opacity="0.06"/><circle cx="434" cy="98" r="2" fill="#111111" opacity="0.06"/><circle cx="462" cy="98" r="2" fill="#111111" opacity="0.06"/><circle cx="490" cy="98" r="2" fill="#111111" opacity="0.06"/><circle cx="518" cy="98" r="2" fill="#111111" opacity="0.06"/><circle cx="546" cy="98" r="2" fill="#111111" opacity="0.06"/><circle cx="574" cy="98" r="2" fill="#111111" opacity="0.06"/><circle cx="602" cy="98" r="2" fill="#111111" opacity="0.06"/><circle cx="14" cy="126" r="2" fill="#111111" opacity="0.06"/><circle cx="42" cy="126" r="2" fill="#111111" opacity="0.06"/><circle cx="70" cy="126" r="2" fill="#111111" opacity="0.06"/><circle cx="98" cy="126" r="2" fill="#111111" opacity="0.06"/><circle cx="126" cy="126" r="2" fill="#111111" opacity="0.06"/><circle cx="154" cy="126" r="2" fill="#111111" opacity="0.06"/><circle cx="182" cy="126" r="2" fill="#111111" opacity="0.06"/><circle cx="210" cy="126" r="2" fill="#111111" opacity="0.06"/><circle cx="238" cy="126" r="2" fill="#111111" opacity="0.06"/><circle cx="266" cy="126" r="2" fill="#111111" opacity="0.06"/><circle cx="294" cy="126" r="2" fill="#111111" opacity="0.06"/><circle cx="322" cy="126" r="2" fill="#111111" opacity="0.06"/><circle cx="350" cy="126" r="2" fill="#111111" opacity="0.06"/><circle cx="378" cy="126" r="2" fill="#111111" opacity="0.06"/><circle cx="406" cy="126" r="2" fill="#111111" opacity="0.06"/><circle cx="434" cy="126" r="2" fill="#111111" opacity="0.06"/><circle cx="462" cy="126" r="2" fill="#111111" opacity="0.06"/><circle cx="490" cy="126" r="2" fill="#111111" opacity="0.06"/><circle cx="518" cy="126" r="2" fill="#111111" opacity="0.06"/><circle cx="546" cy="126" r="2" fill="#111111" opacity="0.06"/><circle cx="574" cy="126" r="2" fill="#111111" opacity="0.06"/><circle cx="602" cy="126" r="2" fill="#111111" opacity="0.06"/><circle cx="14" cy="154" r="2" fill="#111111" opacity="0.06"/><circle cx="42" cy="154" r="2" fill="#111111" opacity="0.06"/><circle cx="70" cy="154" r="2" fill="#111111" opacity="0.06"/><circle cx="98" cy="154" r="2" fill="#111111" opacity="0.06"/><circle cx="126" cy="154" r="2" fill="#111111" opacity="0.06"/><circle cx="154" cy="154" r="2" fill="#111111" opacity="0.06"/><circle cx="182" cy="154" r="2" fill="#111111" opacity="0.06"/><circle cx="210" cy="154" r="2" fill="#111111" opacity="0.06"/><circle cx="238" cy="154" r="2" fill="#111111" opacity="0.06"/><circle cx="266" cy="154" r="2" fill="#111111" opacity="0.06"/><circle cx="294" cy="154" r="2" fill="#111111" opacity="0.06"/><circle cx="322" cy="154" r="2" fill="#111111" opacity="0.06"/><circle cx="350" cy="154" r="2" fill="#111111" opacity="0.06"/><circle cx="378" cy="154" r="2" fill="#111111" opacity="0.06"/><circle cx="406" cy="154" r="2" fill="#111111" opacity="0.06"/><circle cx="434" cy="154" r="2" fill="#111111" opacity="0.06"/><circle cx="462" cy="154" r="2" fill="#111111" opacity="0.06"/><circle cx="490" cy="154" r="2" fill="#111111" opacity="0.06"/><circle cx="518" cy="154" r="2" fill="#111111" opacity="0.06"/><circle cx="546" cy="154" r="2" fill="#111111" opacity="0.06"/><circle cx="574" cy="154" r="2" fill="#111111" opacity="0.06"/><circle cx="602" cy="154" r="2" fill="#111111" opacity="0.06"/><circle cx="14" cy="182" r="2" fill="#111111" opacity="0.06"/><circle cx="42" cy="182" r="2" fill="#111111" opacity="0.06"/><circle cx="70" cy="182" r="2" fill="#111111" opacity="0.06"/><circle cx="98" cy="182" r="2" fill="#111111" opacity="0.06"/><circle cx="126" cy="182" r="2" fill="#111111" opacity="0.06"/><circle cx="154" cy="182" r="2" fill="#111111" opacity="0.06"/><circle cx="182" cy="182" r="2" fill="#111111" opacity="0.06"/><circle cx="210" cy="182" r="2" fill="#111111" opacity="0.06"/><circle cx="238" cy="182" r="2" fill="#111111" opacity="0.06"/><circle cx="266" cy="182" r="2" fill="#111111" opacity="0.06"/><circle cx="294" cy="182" r="2" fill="#111111" opacity="0.06"/><circle cx="322" cy="182" r="2" fill="#111111" opacity="0.06"/><circle cx="350" cy="182" r="2" fill="#111111" opacity="0.06"/><circle cx="378" cy="182" r="2" fill="#111111" opacity="0.06"/><circle cx="406" cy="182" r="2" fill="#111111" opacity="0.06"/><circle cx="434" cy="182" r="2" fill="#111111" opacity="0.06"/><circle cx="462" cy="182" r="2" fill="#111111" opacity="0.06"/><circle cx="490" cy="182" r="2" fill="#111111" opacity="0.06"/><circle cx="518" cy="182" r="2" fill="#111111" opacity="0.06"/><circle cx="546" cy="182" r="2" fill="#111111" opacity="0.06"/><circle cx="574" cy="182" r="2" fill="#111111" opacity="0.06"/><circle cx="602" cy="182" r="2" fill="#111111" opacity="0.06"/><circle cx="14" cy="210" r="2" fill="#111111" opacity="0.06"/><circle cx="42" cy="210" r="2" fill="#111111" opacity="0.06"/><circle cx="70" cy="210" r="2" fill="#111111" opacity="0.06"/><circle cx="98" cy="210" r="2" fill="#111111" opacity="0.06"/><circle cx="126" cy="210" r="2" fill="#111111" opacity="0.06"/><circle cx="154" cy="210" r="2" fill="#111111" opacity="0.06"/><circle cx="182" cy="210" r="2" fill="#111111" opacity="0.06"/><circle cx="210" cy="210" r="2" fill="#111111" opacity="0.06"/><circle cx="238" cy="210" r="2" fill="#111111" opacity="0.06"/><circle cx="266" cy="210" r="2" fill="#111111" opacity="0.06"/><circle cx="294" cy="210" r="2" fill="#111111" opacity="0.06"/><circle cx="322" cy="210" r="2" fill="#111111" opacity="0.06"/><circle cx="350" cy="210" r="2" fill="#111111" opacity="0.06"/><circle cx="378" cy="210" r="2" fill="#111111" opacity="0.06"/><circle cx="406" cy="210" r="2" fill="#111111" opacity="0.06"/><circle cx="434" cy="210" r="2" fill="#111111" opacity="0.06"/><circle cx="462" cy="210" r="2" fill="#111111" opacity="0.06"/><circle cx="490" cy="210" r="2" fill="#111111" opacity="0.06"/><circle cx="518" cy="210" r="2" fill="#111111" opacity="0.06"/><circle cx="546" cy="210" r="2" fill="#111111" opacity="0.06"/><circle cx="574" cy="210" r="2" fill="#111111" opacity="0.06"/><circle cx="602" cy="210" r="2" fill="#111111" opacity="0.06"/><circle cx="14" cy="238" r="2" fill="#111111" opacity="0.06"/><circle cx="42" cy="238" r="2" fill="#111111" opacity="0.06"/><circle cx="70" cy="238" r="2" fill="#111111" opacity="0.06"/><circle cx="98" cy="238" r="2" fill="#111111" opacity="0.06"/><circle cx="126" cy="238" r="2" fill="#111111" opacity="0.06"/><circle cx="154" cy="238" r="2" fill="#111111" opacity="0.06"/><circle cx="182" cy="238" r="2" fill="#111111" opacity="0.06"/><circle cx="210" cy="238" r="2" fill="#111111" opacity="0.06"/><circle cx="238" cy="238" r="2" fill="#111111" opacity="0.06"/><circle cx="266" cy="238" r="2" fill="#111111" opacity="0.06"/><circle cx="294" cy="238" r="2" fill="#111111" opacity="0.06"/><circle cx="322" cy="238" r="2" fill="#111111" opacity="0.06"/><circle cx="350" cy="238" r="2" fill="#111111" opacity="0.06"/><circle cx="378" cy="238" r="2" fill="#111111" opacity="0.06"/><circle cx="406" cy="238" r="2" fill="#111111" opacity="0.06"/><circle cx="434" cy="238" r="2" fill="#111111" opacity="0.06"/><circle cx="462" cy="238" r="2" fill="#111111" opacity="0.06"/><circle cx="490" cy="238" r="2" fill="#111111" opacity="0.06"/><circle cx="518" cy="238" r="2" fill="#111111" opacity="0.06"/><circle cx="546" cy="238" r="2" fill="#111111" opacity="0.06"/><circle cx="574" cy="238" r="2" fill="#111111" opacity="0.06"/><circle cx="602" cy="238" r="2" fill="#111111" opacity="0.06"/><circle cx="14" cy="266" r="2" fill="#111111" opacity="0.06"/><circle cx="42" cy="266" r="2" fill="#111111" opacity="0.06"/><circle cx="70" cy="266" r="2" fill="#111111" opacity="0.06"/><circle cx="98" cy="266" r="2" fill="#111111" opacity="0.06"/><circle cx="126" cy="266" r="2" fill="#111111" opacity="0.06"/><circle cx="154" cy="266" r="2" fill="#111111" opacity="0.06"/><circle cx="182" cy="266" r="2" fill="#111111" opacity="0.06"/><circle cx="210" cy="266" r="2" fill="#111111" opacity="0.06"/><circle cx="238" cy="266" r="2" fill="#111111" opacity="0.06"/><circle cx="266" cy="266" r="2" fill="#111111" opacity="0.06"/><circle cx="294" cy="266" r="2" fill="#111111" opacity="0.06"/><circle cx="322" cy="266" r="2" fill="#111111" opacity="0.06"/><circle cx="350" cy="266" r="2" fill="#111111" opacity="0.06"/><circle cx="378" cy="266" r="2" fill="#111111" opacity="0.06"/><circle cx="406" cy="266" r="2" fill="#111111" opacity="0.06"/><circle cx="434" cy="266" r="2" fill="#111111" opacity="0.06"/><circle cx="462" cy="266" r="2" fill="#111111" opacity="0.06"/><circle cx="490" cy="266" r="2" fill="#111111" opacity="0.06"/><circle cx="518" cy="266" r="2" fill="#111111" opacity="0.06"/><circle cx="546" cy="266" r="2" fill="#111111" opacity="0.06"/><circle cx="574" cy="266" r="2" fill="#111111" opacity="0.06"/><circle cx="602" cy="266" r="2" fill="#111111" opacity="0.06"/><circle cx="14" cy="294" r="2" fill="#111111" opacity="0.06"/><circle cx="42" cy="294" r="2" fill="#111111" opacity="0.06"/><circle cx="70" cy="294" r="2" fill="#111111" opacity="0.06"/><circle cx="98" cy="294" r="2" fill="#111111" opacity="0.06"/><circle cx="126" cy="294" r="2" fill="#111111" opacity="0.06"/><circle cx="154" cy="294" r="2" fill="#111111" opacity="0.06"/><circle cx="182" cy="294" r="2" fill="#111111" opacity="0.06"/><circle cx="210" cy="294" r="2" fill="#111111" opacity="0.06"/><circle cx="238" cy="294" r="2" fill="#111111" opacity="0.06"/><circle cx="266" cy="294" r="2" fill="#111111" opacity="0.06"/><circle cx="294" cy="294" r="2" fill="#111111" opacity="0.06"/><circle cx="322" cy="294" r="2" fill="#111111" opacity="0.06"/><circle cx="350" cy="294" r="2" fill="#111111" opacity="0.06"/><circle cx="378" cy="294" r="2" fill="#111111" opacity="0.06"/><circle cx="406" cy="294" r="2" fill="#111111" opacity="0.06"/><circle cx="434" cy="294" r="2" fill="#111111" opacity="0.06"/><circle cx="462" cy="294" r="2" fill="#111111" opacity="0.06"/><circle cx="490" cy="294" r="2" fill="#111111" opacity="0.06"/><circle cx="518" cy="294" r="2" fill="#111111" opacity="0.06"/><circle cx="546" cy="294" r="2" fill="#111111" opacity="0.06"/><circle cx="574" cy="294" r="2" fill="#111111" opacity="0.06"/><circle cx="602" cy="294" r="2" fill="#111111" opacity="0.06"/><circle cx="14" cy="322" r="2" fill="#111111" opacity="0.06"/><circle cx="42" cy="322" r="2" fill="#111111" opacity="0.06"/><circle cx="70" cy="322" r="2" fill="#111111" opacity="0.06"/><circle cx="98" cy="322" r="2" fill="#111111" opacity="0.06"/><circle cx="126" cy="322" r="2" fill="#111111" opacity="0.06"/><circle cx="154" cy="322" r="2" fill="#111111" opacity="0.06"/><circle cx="182" cy="322" r="2" fill="#111111" opacity="0.06"/><circle cx="210" cy="322" r="2" fill="#111111" opacity="0.06"/><circle cx="238" cy="322" r="2" fill="#111111" opacity="0.06"/><circle cx="266" cy="322" r="2" fill="#111111" opacity="0.06"/><circle cx="294" cy="322" r="2" fill="#111111" opacity="0.06"/><circle cx="322" cy="322" r="2" fill="#111111" opacity="0.06"/><circle cx="350" cy="322" r="2" fill="#111111" opacity="0.06"/><circle cx="378" cy="322" r="2" fill="#111111" opacity="0.06"/><circle cx="406" cy="322" r="2" fill="#111111" opacity="0.06"/><circle cx="434" cy="322" r="2" fill="#111111" opacity="0.06"/><circle cx="462" cy="322" r="2" fill="#111111" opacity="0.06"/><circle cx="490" cy="322" r="2" fill="#111111" opacity="0.06"/><circle cx="518" cy="322" r="2" fill="#111111" opacity="0.06"/><circle cx="546" cy="322" r="2" fill="#111111" opacity="0.06"/><circle cx="574" cy="322" r="2" fill="#111111" opacity="0.06"/><circle cx="602" cy="322" r="2" fill="#111111" opacity="0.06"/><circle cx="14" cy="350" r="2" fill="#111111" opacity="0.06"/><circle cx="42" cy="350" r="2" fill="#111111" opacity="0.06"/><circle cx="70" cy="350" r="2" fill="#111111" opacity="0.06"/><circle cx="98" cy="350" r="2" fill="#111111" opacity="0.06"/><circle cx="126" cy="350" r="2" fill="#111111" opacity="0.06"/><circle cx="154" cy="350" r="2" fill="#111111" opacity="0.06"/><circle cx="182" cy="350" r="2" fill="#111111" opacity="0.06"/><circle cx="210" cy="350" r="2" fill="#111111" opacity="0.06"/><circle cx="238" cy="350" r="2" fill="#111111" opacity="0.06"/><circle cx="266" cy="350" r="2" fill="#111111" opacity="0.06"/><circle cx="294" cy="350" r="2" fill="#111111" opacity="0.06"/><circle cx="322" cy="350" r="2" fill="#111111" opacity="0.06"/><circle cx="350" cy="350" r="2" fill="#111111" opacity="0.06"/><circle cx="378" cy="350" r="2" fill="#111111" opacity="0.06"/><circle cx="406" cy="350" r="2" fill="#111111" opacity="0.06"/><circle cx="434" cy="350" r="2" fill="#111111" opacity="0.06"/><circle cx="462" cy="350" r="2" fill="#111111" opacity="0.06"/><circle cx="490" cy="350" r="2" fill="#111111" opacity="0.06"/><circle cx="518" cy="350" r="2" fill="#111111" opacity="0.06"/><circle cx="546" cy="350" r="2" fill="#111111" opacity="0.06"/><circle cx="574" cy="350" r="2" fill="#111111" opacity="0.06"/><circle cx="602" cy="350" r="2" fill="#111111" opacity="0.06"/><circle cx="14" cy="378" r="2" fill="#111111" opacity="0.06"/><circle cx="42" cy="378" r="2" fill="#111111" opacity="0.06"/><circle cx="70" cy="378" r="2" fill="#111111" opacity="0.06"/><circle cx="98" cy="378" r="2" fill="#111111" opacity="0.06"/><circle cx="126" cy="378" r="2" fill="#111111" opacity="0.06"/><circle cx="154" cy="378" r="2" fill="#111111" opacity="0.06"/><circle cx="182" cy="378" r="2" fill="#111111" opacity="0.06"/><circle cx="210" cy="378" r="2" fill="#111111" opacity="0.06"/><circle cx="238" cy="378" r="2" fill="#111111" opacity="0.06"/><circle cx="266" cy="378" r="2" fill="#111111" opacity="0.06"/><circle cx="294" cy="378" r="2" fill="#111111" opacity="0.06"/><circle cx="322" cy="378" r="2" fill="#111111" opacity="0.06"/><circle cx="350" cy="378" r="2" fill="#111111" opacity="0.06"/><circle cx="378" cy="378" r="2" fill="#111111" opacity="0.06"/><circle cx="406" cy="378" r="2" fill="#111111" opacity="0.06"/><circle cx="434" cy="378" r="2" fill="#111111" opacity="0.06"/><circle cx="462" cy="378" r="2" fill="#111111" opacity="0.06"/><circle cx="490" cy="378" r="2" fill="#111111" opacity="0.06"/><circle cx="518" cy="378" r="2" fill="#111111" opacity="0.06"/><circle cx="546" cy="378" r="2" fill="#111111" opacity="0.06"/><circle cx="574" cy="378" r="2" fill="#111111" opacity="0.06"/><circle cx="602" cy="378" r="2" fill="#111111" opacity="0.06"/><circle cx="14" cy="406" r="2" fill="#111111" opacity="0.06"/><circle cx="42" cy="406" r="2" fill="#111111" opacity="0.06"/><circle cx="70" cy="406" r="2" fill="#111111" opacity="0.06"/><circle cx="98" cy="406" r="2" fill="#111111" opacity="0.06"/><circle cx="126" cy="406" r="2" fill="#111111" opacity="0.06"/><circle cx="154" cy="406" r="2" fill="#111111" opacity="0.06"/><circle cx="182" cy="406" r="2" fill="#111111" opacity="0.06"/><circle cx="210" cy="406" r="2" fill="#111111" opacity="0.06"/><circle cx="238" cy="406" r="2" fill="#111111" opacity="0.06"/><circle cx="266" cy="406" r="2" fill="#111111" opacity="0.06"/><circle cx="294" cy="406" r="2" fill="#111111" opacity="0.06"/><circle cx="322" cy="406" r="2" fill="#111111" opacity="0.06"/><circle cx="350" cy="406" r="2" fill="#111111" opacity="0.06"/><circle cx="378" cy="406" r="2" fill="#111111" opacity="0.06"/><circle cx="406" cy="406" r="2" fill="#111111" opacity="0.06"/><circle cx="434" cy="406" r="2" fill="#111111" opacity="0.06"/><circle cx="462" cy="406" r="2" fill="#111111" opacity="0.06"/><circle cx="490" cy="406" r="2" fill="#111111" opacity="0.06"/><circle cx="518" cy="406" r="2" fill="#111111" opacity="0.06"/><circle cx="546" cy="406" r="2" fill="#111111" opacity="0.06"/><circle cx="574" cy="406" r="2" fill="#111111" opacity="0.06"/><circle cx="602" cy="406" r="2" fill="#111111" opacity="0.06"/><circle cx="14" cy="434" r="2" fill="#111111" opacity="0.06"/><circle cx="42" cy="434" r="2" fill="#111111" opacity="0.06"/><circle cx="70" cy="434" r="2" fill="#111111" opacity="0.06"/><circle cx="98" cy="434" r="2" fill="#111111" opacity="0.06"/><circle cx="126" cy="434" r="2" fill="#111111" opacity="0.06"/><circle cx="154" cy="434" r="2" fill="#111111" opacity="0.06"/><circle cx="182" cy="434" r="2" fill="#111111" opacity="0.06"/><circle cx="210" cy="434" r="2" fill="#111111" opacity="0.06"/><circle cx="238" cy="434" r="2" fill="#111111" opacity="0.06"/><circle cx="266" cy="434" r="2" fill="#111111" opacity="0.06"/><circle cx="294" cy="434" r="2" fill="#111111" opacity="0.06"/><circle cx="322" cy="434" r="2" fill="#111111" opacity="0.06"/><circle cx="350" cy="434" r="2" fill="#111111" opacity="0.06"/><circle cx="378" cy="434" r="2" fill="#111111" opacity="0.06"/><circle cx="406" cy="434" r="2" fill="#111111" opacity="0.06"/><circle cx="434" cy="434" r="2" fill="#111111" opacity="0.06"/><circle cx="462" cy="434" r="2" fill="#111111" opacity="0.06"/><circle cx="490" cy="434" r="2" fill="#111111" opacity="0.06"/><circle cx="518" cy="434" r="2" fill="#111111" opacity="0.06"/><circle cx="546" cy="434" r="2" fill="#111111" opacity="0.06"/><circle cx="574" cy="434" r="2" fill="#111111" opacity="0.06"/><circle cx="602" cy="434" r="2" fill="#111111" opacity="0.06"/><circle cx="14" cy="462" r="2" fill="#111111" opacity="0.06"/><circle cx="42" cy="462" r="2" fill="#111111" opacity="0.06"/><circle cx="70" cy="462" r="2" fill="#111111" opacity="0.06"/><circle cx="98" cy="462" r="2" fill="#111111" opacity="0.06"/><circle cx="126" cy="462" r="2" fill="#111111" opacity="0.06"/><circle cx="154" cy="462" r="2" fill="#111111" opacity="0.06"/><circle cx="182" cy="462" r="2" fill="#111111" opacity="0.06"/><circle cx="210" cy="462" r="2" fill="#111111" opacity="0.06"/><circle cx="238" cy="462" r="2" fill="#111111" opacity="0.06"/><circle cx="266" cy="462" r="2" fill="#111111" opacity="0.06"/><circle cx="294" cy="462" r="2" fill="#111111" opacity="0.06"/><circle cx="322" cy="462" r="2" fill="#111111" opacity="0.06"/><circle cx="350" cy="462" r="2" fill="#111111" opacity="0.06"/><circle cx="378" cy="462" r="2" fill="#111111" opacity="0.06"/><circle cx="406" cy="462" r="2" fill="#111111" opacity="0.06"/><circle cx="434" cy="462" r="2" fill="#111111" opacity="0.06"/><circle cx="462" cy="462" r="2" fill="#111111" opacity="0.06"/><circle cx="490" cy="462" r="2" fill="#111111" opacity="0.06"/><circle cx="518" cy="462" r="2" fill="#111111" opacity="0.06"/><circle cx="546" cy="462" r="2" fill="#111111" opacity="0.06"/><circle cx="574" cy="462" r="2" fill="#111111" opacity="0.06"/><circle cx="602" cy="462" r="2" fill="#111111" opacity="0.06"/><circle cx="14" cy="490" r="2" fill="#111111" opacity="0.06"/><circle cx="42" cy="490" r="2" fill="#111111" opacity="0.06"/><circle cx="70" cy="490" r="2" fill="#111111" opacity="0.06"/><circle cx="98" cy="490" r="2" fill="#111111" opacity="0.06"/><circle cx="126" cy="490" r="2" fill="#111111" opacity="0.06"/><circle cx="154" cy="490" r="2" fill="#111111" opacity="0.06"/><circle cx="182" cy="490" r="2" fill="#111111" opacity="0.06"/><circle cx="210" cy="490" r="2" fill="#111111" opacity="0.06"/><circle cx="238" cy="490" r="2" fill="#111111" opacity="0.06"/><circle cx="266" cy="490" r="2" fill="#111111" opacity="0.06"/><circle cx="294" cy="490" r="2" fill="#111111" opacity="0.06"/><circle cx="322" cy="490" r="2" fill="#111111" opacity="0.06"/><circle cx="350" cy="490" r="2" fill="#111111" opacity="0.06"/><circle cx="378" cy="490" r="2" fill="#111111" opacity="0.06"/><circle cx="406" cy="490" r="2" fill="#111111" opacity="0.06"/><circle cx="434" cy="490" r="2" fill="#111111" opacity="0.06"/><circle cx="462" cy="490" r="2" fill="#111111" opacity="0.06"/><circle cx="490" cy="490" r="2" fill="#111111" opacity="0.06"/><circle cx="518" cy="490" r="2" fill="#111111" opacity="0.06"/><circle cx="546" cy="490" r="2" fill="#111111" opacity="0.06"/><circle cx="574" cy="490" r="2" fill="#111111" opacity="0.06"/><circle cx="602" cy="490" r="2" fill="#111111" opacity="0.06"/>

  <!-- Mini-board demo: 2x2 grid of blocks with a portal hint on the right -->
  <rect x="216" y="40" width="198" height="198" rx="22" ry="22" fill="#ffffff" stroke="#111111" stroke-width="5"/>
    <rect x="240" y="64" width="78" height="78" rx="22" ry="22" fill="#111111"/>
    <rect x="232" y="56" width="78" height="78" rx="22" ry="22" fill="#111111"/>
    <rect x="238" y="62" width="66" height="66" rx="19" ry="19" fill="#e56b6f"/>
  
    <rect x="328" y="64" width="78" height="78" rx="22" ry="22" fill="#111111"/>
    <rect x="320" y="56" width="78" height="78" rx="22" ry="22" fill="#111111"/>
    <rect x="326" y="62" width="66" height="66" rx="19" ry="19" fill="#ffd96a"/>
  <polygon points="364,81 384,95 364,109" fill="#111111"/>
    <rect x="240" y="152" width="78" height="78" rx="22" ry="22" fill="#111111"/>
    <rect x="232" y="144" width="78" height="78" rx="22" ry="22" fill="#111111"/>
    <rect x="238" y="150" width="66" height="66" rx="19" ry="19" fill="#7fb7e8"/>
  
    <rect x="328" y="152" width="78" height="78" rx="22" ry="22" fill="#111111"/>
    <rect x="320" y="144" width="78" height="78" rx="22" ry="22" fill="#111111"/>
    <rect x="326" y="150" width="66" height="66" rx="19" ry="19" fill="#b8e5c8"/>
  <polygon points="364,169 384,183 364,197" fill="#111111"/>

  <!-- Title -->
  <g transform="translate(315, 320)">
    <rect x="-300" y="-50" width="600" height="100" rx="22" ry="22" fill="#111111" transform="translate(7,7)"/>
    <rect x="-300" y="-50" width="600" height="100" rx="22" ry="22" fill="#111111"/>
    <rect x="-294" y="-44" width="588" height="88" rx="18" ry="18" fill="#ffd96a"/>
    <text x="0" y="14" text-anchor="middle"
          class="title"
          font-size="50"
          fill="#111111"
          letter-spacing="2">KINETIC PUZZLE</text>
  </g>

  <!-- Subtitle pill -->
  <g transform="translate(315, 415)">
    <rect x="-220" y="-28" width="440" height="56" rx="16" ry="16" fill="#111111" transform="translate(5,5)"/>
    <rect x="-220" y="-28" width="440" height="56" rx="16" ry="16" fill="#111111"/>
    <rect x="-215" y="-23" width="430" height="46" rx="12" ry="12" fill="#b8e5c8"/>
    <text x="0" y="9" text-anchor="middle"
          class="title"
          font-size="20"
          fill="#111111"
          letter-spacing="3">SLIDE · STACK · ESCAPE</text>
  </g>
</svg>
